<svg xmlns="http://www.w3.org/2000/svg" xmlns:xlink="http://www.w3.org/1999/xlink" version="1.1" id="Layer_1" x="0px"
    y="0px" width="140.8px" height="48px" viewBox="0 0 140.8 48" style="enable-background:new 0 0 140.8 48;"
    xml:space="preserve">
    <style type="text/css">
        .st0 {
            fill: #231F20;
        }

        .st1 {
            fill: #FFFFFF;
        }
    </style>
    <g>
        <g>
            <path class="st0"
                d="M40.179,0H0.028C0.015,0.423-0.245,11.205,1.131,17.995C3.385,29.107,9.592,39.1,20.103,48    c10.513-8.9,16.719-18.893,18.975-30.005C40.456,11.205,40.189,0.423,40.179,0" />
            <path class="st1"
                d="M25.251,6.974c0.481,0,0.872,0.39,0.872,0.87c0,0.48-0.391,0.872-0.872,0.872    c-0.48,0-0.871-0.393-0.871-0.872C24.38,7.364,24.771,6.974,25.251,6.974" />
            <path class="st1"
                d="M14.958,6.974c0.477,0,0.868,0.39,0.868,0.87c0,0.48-0.391,0.872-0.868,0.872    c-0.481,0-0.874-0.393-0.874-0.872C14.084,7.364,14.477,6.974,14.958,6.974" />
            <path class="st1"
                d="M12.555,30.156c0.745,0,0.781-0.386,0.815-0.51c-0.143,0.144-0.432,0.241-0.88,0.241    c-0.451,0-0.888-0.184-1.121-0.914c-0.118-0.377-0.026-0.811-0.026-0.811s0.494,0.394,0.875,0.373    c0.677-0.035,1.187-0.465,1.187-1.242c0-0.915-0.652-1.9-1.932-3.42c-1.142-1.352-1.705-2.808-1.705-4.238    c0-3.37,3.357-5.496,3.357-5.496s0.351,8.426,0.422,9.336c0.073,0.909,0.284,2.463,0.827,3.67v2.936    c-0.148,0.463-0.733,0.655-1.141,0.655C12.914,30.736,12.515,30.436,12.555,30.156" />
            <path class="st1"
                d="M20.103,12.986c-4.971,0-7.518,0.591-7.518,0.591l-0.652-1.311c0,0,3.449-0.661,8.17-0.661    c4.719,0,8.172,0.661,8.172,0.661l-0.653,1.311C27.623,13.577,25.075,12.986,20.103,12.986" />
            <path class="st1"
                d="M24.564,37.022h-8.919l-1.472-1.648c0,0,0.931-0.848,0.931-2.399v-4.621    c-0.016-0.004,1.717,2.504,4.999,2.504c2.883,0,5.029-2.45,5.001-2.441v4.558c0,1.551,0.93,2.399,0.93,2.399L24.564,37.022z" />
            <path class="st1"
                d="M27.989,28.535c0.38,0.021,0.875-0.373,0.875-0.373s0.092,0.434-0.027,0.811    c-0.228,0.73-0.671,0.914-1.116,0.914c-0.451,0-0.74-0.097-0.883-0.241c0.033,0.124,0.071,0.51,0.814,0.51    c0.04,0.279-0.356,0.58-0.677,0.58c-0.408,0-0.992-0.193-1.139-0.656v-2.936c0.541-1.207,0.751-2.76,0.822-3.67    c0.071-0.91,0.426-9.336,0.426-9.336s3.354,2.126,3.354,5.496c0,1.429-0.56,2.886-1.703,4.238c-1.284,1.52-1.932,2.505-1.932,3.42    C26.802,28.07,27.309,28.5,27.989,28.535" />
            <path class="st1"
                d="M28.571,11.678c0,0-3.587-0.722-8.468-0.722c-4.879,0-8.463,0.722-8.463,0.722l-2.37-4.745    c0,0,0.7-0.484,1.199-0.484c0.88,0,1.077,0.791,1.077,1.067c0,0.219-0.026,0.387-0.157,0.537l-0.037,0.038    c-0.198,0.226-0.247,0.283-0.247,0.433c0,0.137,0.096,0.35,0.353,0.35c0.229,0,0.283-0.073,0.386-0.359    c0.107-0.291,0.393-0.584,0.798-0.584c0.397,0,0.84,0.346,0.84,0.84c0,0.527-0.43,0.842-0.84,0.842    c-0.236,0-0.347-0.067-0.423-0.115c-0.053-0.031-0.08-0.047-0.124-0.047c-0.051,0-0.092,0.035-0.113,0.062    c-0.065,0.078-0.09,0.206-0.065,0.331c0.067,0.362,0.752,0.922,1.522,0.922c1.144,0,1.839-1.03,1.839-1.774    c0.438,1.046,1.412,1.268,2.085,1.268c1.812,0,2.187-1.609,2.187-2.04c0-0.29-0.092-0.526-0.177-0.567    c-0.012-0.003-0.044-0.018-0.103,0.035l-0.073,0.064c-0.22,0.2-0.632,0.572-1.209,0.572c-0.647,0-1.318-0.486-1.318-1.3    c0-0.863,0.662-1.314,1.315-1.314c0.543,0,0.85,0.298,1.057,0.495c0.08,0.079,0.163,0.162,0.207,0.162    c0.091,0,0.177-0.037,0.233-0.1c0.044-0.049,0.068-0.113,0.068-0.182c0-0.011,0-0.025-0.003-0.039    c-0.007-0.058-0.079-0.129-0.162-0.213c-0.179-0.186-0.424-0.441-0.424-0.934c0-0.565,0.459-1.168,1.144-1.171    c0.688,0.003,1.146,0.606,1.146,1.171c0,0.493-0.247,0.748-0.427,0.934c-0.081,0.083-0.15,0.154-0.157,0.213    c0,0.014-0.003,0.028-0.003,0.039c0,0.069,0.024,0.133,0.068,0.182c0.053,0.063,0.139,0.1,0.231,0.1    c0.046,0,0.129-0.082,0.207-0.162c0.206-0.197,0.514-0.495,1.058-0.495c0.653,0,1.314,0.451,1.314,1.314    c0,0.814-0.674,1.3-1.321,1.3c-0.574,0-0.988-0.371-1.208-0.572l-0.069-0.064c-0.063-0.053-0.094-0.038-0.104-0.035    c-0.084,0.041-0.179,0.278-0.179,0.567c0,0.43,0.373,2.04,2.185,2.04c0.671,0,1.645-0.222,2.085-1.268    c0,0.744,0.695,1.774,1.842,1.774c0.768,0,1.452-0.56,1.519-0.922c0.027-0.125-0.001-0.253-0.065-0.331    c-0.023-0.027-0.062-0.062-0.114-0.062c-0.045,0-0.072,0.015-0.121,0.047c-0.079,0.048-0.187,0.115-0.424,0.115    c-0.411,0-0.839-0.315-0.839-0.842c0-0.494,0.444-0.84,0.839-0.84c0.404,0,0.691,0.293,0.798,0.584    c0.107,0.286,0.159,0.359,0.387,0.359c0.257,0,0.351-0.214,0.351-0.35c0-0.15-0.047-0.207-0.248-0.433L28.82,8.053    c-0.131-0.15-0.16-0.317-0.16-0.537c0-0.276,0.201-1.067,1.08-1.067c0.5,0,1.198,0.484,1.198,0.484L28.571,11.678z" />
            <path class="st1"
                d="M26.275,14.076c-0.03,0.666-0.251,6.108-0.276,7.636c-0.008,0.628-0.178,2.757-0.339,3.555    c-0.355,1.765-1.925,4.751-5.558,4.751c-3.63,0-5.202-2.986-5.555-4.751c-0.161-0.8-0.334-2.929-0.341-3.555    c-0.021-1.528-0.247-6.97-0.273-7.636c0.397-0.061,2.622-0.371,6.169-0.371C23.653,13.705,25.877,14.015,26.275,14.076" />
            <path class="st0"
                d="M23.868,16.705c-0.316,0-0.653,0.051-0.927,0.264c-0.146,0.11-0.193,0.263,0.023,0.263    c0.38,0,0.618,0.345,0.618,0.605c0,0.259-0.164,0.389-0.354,0.389c-0.192,0-0.298,0.173-0.099,0.213    c0.21,0.041,0.421,0.065,0.735,0.065c1.088,0,1.671-0.355,1.671-0.657C25.536,17.544,24.938,16.705,23.868,16.705" />
            <path class="st0"
                d="M16.728,15.544c0.5,0.129,1.24,0.401,1.788,0.95c0.563,0.566,0.778,1.127,0.857,1.519    c0.067,0.328,0.186,0.342,0.284,0.022c0.144-0.461,0.187-1.176-0.468-1.915c-0.606-0.679-1.532-0.828-2.076-0.828    c-0.133,0-0.264,0.011-0.381,0.027C16.415,15.359,16.401,15.46,16.728,15.544" />
            <path class="st0"
                d="M22.324,25.738c-0.317-0.151-1.191-0.577-1.401-0.672c-0.116-0.055-0.163-0.063-0.286-0.063h-1.08    c-0.124,0-0.171,0.008-0.287,0.063c-0.211,0.096-1.088,0.521-1.398,0.672c-0.176,0.083-0.15,0.253,0.017,0.253h4.414    C22.472,25.991,22.496,25.821,22.324,25.738" />
            <path class="st0"
                d="M18.395,17.847c0-0.303-0.594-1.143-1.666-1.143c-0.316,0-0.653,0.051-0.927,0.264    c-0.144,0.109-0.191,0.263,0.024,0.263c0.377,0,0.619,0.345,0.619,0.605c0,0.259-0.166,0.389-0.357,0.389    c-0.189,0-0.297,0.174-0.097,0.214c0.213,0.041,0.42,0.065,0.737,0.065C17.814,18.505,18.395,18.149,18.395,17.847" />
            <path class="st0"
                d="M21.524,26.622h-2.842c-0.15,0-0.172,0.141-0.07,0.21c0.09,0.064,0.672,0.453,0.804,0.534    c0.103,0.064,0.153,0.073,0.278,0.073h0.815c0.127,0,0.178-0.009,0.281-0.073c0.129-0.082,0.711-0.47,0.802-0.534    C21.692,26.764,21.673,26.622,21.524,26.622" />
            <path class="st0"
                d="M24.524,15.294c-0.42,0-0.688-0.002-1.387-0.002c-1.435,0-2.43,1.191-2.43,2.636v4.226    c0,0.24-0.093,0.387-0.345,0.387h-0.256c-0.139,0-0.284,0.034-0.417,0.147c-0.216,0.181-0.741,0.635-0.813,0.725    c-0.076,0.085-0.054,0.191,0.163,0.191h2.84c0.163,0,0.232-0.071,0.1-0.191c-0.179-0.166-0.753-0.717-0.753-0.717v-4.261    c0-1.111,0.216-2.478,2.308-2.478c0.557,0,1.05,0.001,1.14,0.001c0.764,0,1.169-0.667,1.169-0.667S24.941,15.294,24.524,15.294" />
        </g>
        <g>
            <path class="st0"
                d="M47.4,16.118c0.618,0.743,1.665,1.367,2.761,1.419c1.244,0.06,2.046-0.637,2.046-1.38    c0-0.899-0.673-1.424-1.937-1.95L49.258,13.8c-1.932-0.797-2.889-1.95-2.889-3.511c0-1.933,1.86-3.188,3.81-3.188    c1.481,0,2.609,0.491,3.549,1.542l-1.405,1.252c-0.638-0.689-1.252-0.962-2.14-0.962c-0.866,0-1.769,0.485-1.769,1.316    c0,0.781,0.627,1.364,1.91,1.872l0.993,0.424c1.751,0.712,2.943,1.764,2.943,3.443c0,1.682-1.348,3.425-4.081,3.425    c-1.886,0-3.264-0.855-4.345-1.953L47.4,16.118z" />
            <path class="st0"
                d="M60.536,19.262h-1.551c-1.815,0-2.893-1.078-2.893-2.874v-4.726h-1.541V9.81h1.541V7.583h2.08V9.81h2.364    v1.852h-2.364v4.292c0,0.964,0.265,1.399,1.342,1.399h1.022V19.262z" />
            <path class="st0"
                d="M61.525,14.536c0-2.76,2.079-4.878,4.896-4.878c2.798,0,4.896,2.118,4.896,4.878    c0,2.76-2.098,4.877-4.896,4.877C63.605,19.414,61.525,17.297,61.525,14.536 M69.182,14.536c0-1.645-1.153-2.893-2.76-2.893    c-1.626,0-2.76,1.248-2.76,2.893c0,1.645,1.134,2.892,2.76,2.892C68.029,17.429,69.182,16.181,69.182,14.536" />
            <g>
                <path class="st0"
                    d="M72.656,14.536c0-2.76,2.079-4.878,4.877-4.878c1.512,0,2.741,0.624,3.611,1.569l-1.418,1.456     c-0.492-0.567-1.21-1.002-2.193-1.002c-1.607,0-2.741,1.21-2.741,2.855c0,1.645,1.134,2.855,2.741,2.855     c0.983,0,1.701-0.435,2.193-1.002l1.418,1.456c-0.869,0.945-2.098,1.569-3.611,1.569C74.735,19.414,72.656,17.297,72.656,14.536" />
            </g>
            <polygon class="st0"
                points="84.735,19.262 82.656,19.262 82.656,6.065 84.735,6.065 84.735,14.082 88.516,9.81 90.974,9.81    87.042,14.291 91.446,19.262 88.894,19.262 84.735,14.536   " />
            <path class="st0"
                d="M94.515,13.307v5.956h-2.08V6.065h2.08v4.633c0.662-0.718,1.664-1.04,2.647-1.04    c2.344,0,3.838,1.626,3.838,4.065v5.539h-2.08v-5.502c0-1.021-0.756-2.118-2.155-2.118C95.687,11.643,94.874,12.211,94.515,13.307    " />
            <g>
                <path class="st0"
                    d="M102.685,14.536c0-2.76,2.079-4.878,4.897-4.878c2.798,0,4.896,2.118,4.896,4.878     c0,2.76-2.098,4.877-4.896,4.877C104.765,19.414,102.685,17.297,102.685,14.536 M110.342,14.536c0-1.645-1.153-2.893-2.76-2.893     c-1.627,0-2.76,1.248-2.76,2.893c0,1.645,1.134,2.892,2.76,2.892C109.189,17.429,110.342,16.181,110.342,14.536" />
            </g>
            <rect x="114.164" y="6.065" class="st0" width="2.079" height="13.197" />
            <path class="st0"
                d="M120.358,13.251v6.011h-2.08V9.81h2.08v0.888c0.643-0.737,1.569-1.039,2.439-1.039    c1.323,0,2.325,0.529,2.949,1.455c0.889-1.172,2.212-1.455,3.119-1.455c2.325,0,3.649,1.626,3.649,4.064v5.539h-2.08v-5.501    c0-1.021-0.586-2.117-1.947-2.117c-0.945,0-1.701,0.567-2.061,1.645c0.019,0.151,0.019,0.283,0.019,0.435v5.539h-2.079v-5.501    c0-1.021-0.605-2.117-1.966-2.117C121.473,11.644,120.698,12.211,120.358,13.251" />
            <path class="st0"
                d="M133.677,17.775l0.167,0.152c1.126,1.024,2.21,1.52,3.538,1.52c2.248,0,3.424-1.412,3.424-2.808    c0-1.241-0.8-2.159-2.446-2.805l-0.789-0.325c-1.231-0.472-1.374-0.932-1.374-1.238c0-0.502,0.603-0.84,1.186-0.84    c0.643,0,1.073,0.226,1.534,0.707l0.138,0.144l1.391-1.199l-0.139-0.15c-0.764-0.827-1.683-1.258-2.926-1.258    c-1.579,0-3.211,0.983-3.211,2.628c0,1.26,0.81,2.222,2.408,2.858l0.794,0.309c1.02,0.41,1.399,0.762,1.399,1.3    c0,0.419-0.482,0.852-1.287,0.852c-0.035,0-0.071-0.001-0.107-0.003c-0.732-0.034-1.582-0.39-2.08-0.968l-0.136-0.157    L133.677,17.775z" />
            <path class="st0"
                d="M46.51,33.282l0.167,0.152c1.125,1.024,2.21,1.52,3.538,1.52c2.248,0,3.424-1.412,3.424-2.807    c0-1.241-0.8-2.159-2.445-2.805l-0.789-0.325c-1.231-0.472-1.374-0.932-1.374-1.238c0-0.502,0.603-0.839,1.186-0.839    c0.643,0,1.073,0.226,1.534,0.706l0.138,0.144l1.391-1.198l-0.14-0.15c-0.764-0.827-1.683-1.258-2.926-1.258    c-1.578,0-3.211,0.983-3.211,2.628c0,1.26,0.81,2.222,2.408,2.858l0.794,0.308c1.02,0.41,1.399,0.762,1.399,1.3    c0,0.419-0.482,0.852-1.287,0.852c-0.036,0-0.071-0.001-0.107-0.003c-0.732-0.034-1.582-0.39-2.08-0.969L47.995,32L46.51,33.282z" />
            <path class="st0"
                d="M60.536,34.803h-1.551c-1.815,0-2.893-1.078-2.893-2.874v-4.726h-1.541V25.35h1.541v-2.227h2.08v2.227h2.364    v1.853h-2.364v4.291c0,0.964,0.265,1.399,1.342,1.399h1.022V34.803z" />
            <path class="st0"
                d="M68.917,34.104c-0.661,0.529-1.531,0.85-2.533,0.85c-2.798,0-4.858-2.117-4.858-4.877    c0-2.76,2.06-4.877,4.858-4.877c1.002,0,1.872,0.322,2.533,0.851v-0.7h2.08v9.452h-2.08V34.104z M68.917,31.683V28.47    c-0.492-0.775-1.456-1.286-2.514-1.286c-1.607,0-2.741,1.247-2.741,2.893c0,1.644,1.134,2.892,2.741,2.892    C67.461,32.969,68.425,32.459,68.917,31.683" />
            <path class="st0"
                d="M80.047,34.104c-0.662,0.529-1.531,0.85-2.533,0.85c-2.798,0-4.859-2.117-4.859-4.877    c0-2.76,2.061-4.877,4.859-4.877c1.002,0,1.871,0.322,2.533,0.851v-4.445h2.079v13.197h-2.079V34.104z M80.047,31.683V28.47    c-0.492-0.775-1.456-1.286-2.514-1.286c-1.607,0-2.741,1.247-2.741,2.893c0,1.644,1.134,2.892,2.741,2.892    C78.592,32.969,79.556,32.459,80.047,31.683" />
        </g>
    </g>
</svg>