<svg xmlns="http://www.w3.org/2000/svg" xmlns:xlink="http://www.w3.org/1999/xlink" version="1.1" id="Layer_1" x="0px"
    y="0px" width="133.5px" height="48px" viewBox="0 0 133.5 48" style="enable-background:new 0 0 133.5 48;"
    xml:space="preserve">
    <style type="text/css">
        .st0 {
            fill: #FFFFFF;
        }
    </style>
    <g>
        <path class="st0"
            d="M20.151,48l-0.93-0.788C9.359,38.863,3.256,29.194,1.082,18.474C-0.239,11.953,0.016,1.827,0.027,1.399   L0.067,0h40.177l0.032,1.426c0.025,1.089,0.21,10.824-1.053,17.048c-2.178,10.722-8.281,20.391-18.141,28.738L20.151,48z   M1.524,1.499C1.503,2.338,1.302,12.012,2.551,18.176c2.102,10.368,8.024,19.741,17.6,27.86   c9.574-8.117,15.496-17.491,17.602-27.86c1.214-5.983,1.052-15.427,1.025-16.677H1.524z" />
        <path class="st0"
            d="M24.869,7.818c0.45,0,0.816,0.365,0.816,0.814c0,0.449-0.366,0.815-0.816,0.815   c-0.448,0-0.814-0.366-0.814-0.815C24.055,8.183,24.42,7.818,24.869,7.818" />
        <path class="st0"
            d="M15.25,7.818c0.446,0,0.812,0.365,0.812,0.814c0,0.449-0.366,0.815-0.812,0.815   c-0.45,0-0.817-0.366-0.817-0.815C14.433,8.183,14.8,7.818,15.25,7.818" />
        <path class="st0"
            d="M13.004,29.483c0.697,0,0.73-0.36,0.762-0.476c-0.134,0.135-0.404,0.225-0.822,0.225   c-0.422,0-0.83-0.172-1.048-0.854c-0.111-0.352-0.024-0.758-0.024-0.758s0.462,0.368,0.818,0.348   c0.633-0.033,1.109-0.435,1.109-1.161c0-0.855-0.61-1.776-1.805-3.196c-1.068-1.264-1.593-2.625-1.593-3.961   c0-3.149,3.138-5.136,3.138-5.136s0.328,7.875,0.394,8.725c0.068,0.85,0.266,2.302,0.773,3.43v2.744   c-0.139,0.433-0.684,0.613-1.066,0.613C13.339,30.025,12.967,29.745,13.004,29.483" />
        <path class="st0"
            d="M20.058,13.437c-4.645,0-7.026,0.552-7.026,0.552l-0.608-1.226c0,0,3.223-0.618,7.635-0.618   c4.41,0,7.637,0.618,7.637,0.618l-0.61,1.226C27.085,13.99,24.704,13.437,20.058,13.437" />
        <path class="st0"
            d="M24.227,35.9h-8.335l-1.376-1.54c0,0,0.87-0.793,0.87-2.242v-4.318c-0.015-0.004,1.604,2.341,4.672,2.341   c2.694,0,4.7-2.29,4.673-2.282v4.259c0,1.449,0.869,2.242,0.869,2.242L24.227,35.9z" />
        <path class="st0"
            d="M27.427,27.969c0.355,0.02,0.818-0.348,0.818-0.348s0.085,0.405-0.025,0.758   c-0.214,0.682-0.627,0.854-1.044,0.854c-0.422,0-0.691-0.091-0.824-0.225c0.031,0.116,0.067,0.476,0.761,0.476   c0.037,0.261-0.332,0.542-0.632,0.542c-0.382,0-0.928-0.18-1.065-0.613v-2.744c0.506-1.127,0.702-2.58,0.768-3.43   c0.067-0.85,0.398-8.725,0.398-8.725s3.135,1.987,3.135,5.136c0,1.336-0.524,2.697-1.592,3.961c-1.2,1.42-1.805,2.341-1.805,3.196   C26.318,27.534,26.792,27.936,27.427,27.969" />
        <path class="st0"
            d="M27.971,12.215c0,0-3.352-0.675-7.913-0.675c-4.56,0-7.91,0.675-7.91,0.675L9.933,7.781   c0,0,0.654-0.452,1.121-0.452c0.822,0,1.006,0.739,1.006,0.997c0,0.205-0.024,0.361-0.147,0.501l-0.035,0.035   c-0.185,0.211-0.231,0.264-0.231,0.404c0,0.127,0.089,0.328,0.33,0.328c0.214,0,0.264-0.068,0.36-0.336   c0.1-0.272,0.367-0.546,0.746-0.546c0.371,0,0.785,0.324,0.785,0.785c0,0.492-0.402,0.787-0.785,0.787   c-0.22,0-0.324-0.063-0.395-0.108c-0.049-0.029-0.075-0.043-0.116-0.043c-0.048,0-0.085,0.032-0.105,0.057   c-0.062,0.073-0.084,0.192-0.062,0.309c0.063,0.339,0.703,0.862,1.422,0.862c1.069,0,1.719-0.963,1.719-1.658   c0.41,0.977,1.32,1.185,1.948,1.185c1.693,0,2.043-1.504,2.043-1.906c0-0.271-0.086-0.492-0.166-0.53   c-0.011-0.003-0.041-0.017-0.096,0.033l-0.068,0.059c-0.205,0.188-0.591,0.534-1.13,0.534c-0.605,0-1.232-0.454-1.232-1.214   c0-0.807,0.619-1.228,1.229-1.228c0.507,0,0.794,0.278,0.987,0.463c0.075,0.074,0.152,0.151,0.194,0.151   c0.085,0,0.166-0.035,0.217-0.094c0.041-0.046,0.065-0.105,0.065-0.17c0-0.011,0-0.024-0.003-0.037   c-0.007-0.055-0.073-0.121-0.151-0.199c-0.167-0.174-0.396-0.412-0.396-0.873c0-0.528,0.43-1.091,1.069-1.094   c0.643,0.003,1.07,0.567,1.07,1.094c0,0.46-0.231,0.699-0.399,0.873c-0.076,0.078-0.14,0.144-0.147,0.199   c0,0.013-0.003,0.026-0.003,0.037c0,0.065,0.023,0.124,0.065,0.17c0.049,0.059,0.129,0.094,0.216,0.094   c0.043,0,0.12-0.077,0.194-0.151c0.192-0.185,0.481-0.463,0.989-0.463c0.61,0,1.228,0.422,1.228,1.228   c0,0.761-0.63,1.214-1.234,1.214c-0.536,0-0.924-0.347-1.129-0.534l-0.064-0.059c-0.059-0.05-0.088-0.036-0.097-0.033   c-0.079,0.038-0.167,0.259-0.167,0.53c0,0.402,0.348,1.906,2.042,1.906c0.627,0,1.537-0.208,1.948-1.185   c0,0.695,0.65,1.658,1.722,1.658c0.718,0,1.357-0.523,1.42-0.862c0.025-0.117-0.001-0.237-0.061-0.309   c-0.022-0.025-0.057-0.057-0.107-0.057c-0.041,0-0.067,0.014-0.113,0.043c-0.074,0.045-0.175,0.108-0.396,0.108   c-0.384,0-0.785-0.295-0.785-0.787c0-0.462,0.415-0.785,0.785-0.785c0.378,0,0.646,0.273,0.746,0.546   c0.1,0.268,0.149,0.336,0.362,0.336c0.24,0,0.328-0.2,0.328-0.328c0-0.14-0.044-0.194-0.232-0.404l-0.032-0.035   c-0.123-0.14-0.15-0.296-0.15-0.501c0-0.258,0.188-0.997,1.009-0.997c0.467,0,1.119,0.452,1.119,0.452L27.971,12.215z" />
        <path class="st0"
            d="M25.451,15.61c-0.004,0.006-0.397,0.639-1.121,0.639l-1.065,0c-1.871,0-2.123,1.154-2.123,2.283v3.967   c0.075,0.072,0.541,0.519,0.692,0.66c0.064,0.058,0.087,0.112,0.07,0.158c-0.019,0.05-0.085,0.078-0.185,0.078h-2.654   c-0.144,0-0.195-0.048-0.213-0.087c-0.02-0.044-0.007-0.098,0.036-0.147c0.069-0.087,0.567-0.517,0.763-0.681   c0.115-0.098,0.249-0.145,0.411-0.145h0.239c0.2,0,0.29-0.101,0.29-0.328v-3.949c0-1.423,0.991-2.497,2.305-2.497   c0.367,0,0.608,0.001,0.818,0.001c0.162,0,0.307,0.001,0.478,0.001c0.39,0,1.233-0.002,1.233-0.002h0.059L25.451,15.61z   M23.573,18.628c-0.269,0-0.47-0.018-0.694-0.061c-0.126-0.025-0.129-0.1-0.126-0.122c0.008-0.079,0.109-0.143,0.225-0.143   c0.137,0,0.297-0.087,0.297-0.33c0-0.222-0.207-0.532-0.545-0.532c-0.115,0-0.153-0.044-0.166-0.081   c-0.021-0.064,0.027-0.153,0.124-0.225c0.222-0.173,0.503-0.254,0.886-0.254c1.045,0,1.592,0.818,1.592,1.101   C25.168,18.299,24.571,18.628,23.573,18.628 M22.274,25.52c-0.012,0.05-0.059,0.104-0.16,0.104h-4.125   c-0.1,0-0.147-0.054-0.159-0.104c-0.017-0.074,0.034-0.15,0.129-0.195c0.279-0.136,1.108-0.539,1.307-0.629   c0.112-0.054,0.161-0.062,0.282-0.062h1.009c0.12,0,0.168,0.008,0.281,0.062c0.127,0.057,0.511,0.243,0.849,0.407   c0.185,0.089,0.355,0.172,0.46,0.222C22.241,25.37,22.29,25.446,22.274,25.52 M21.47,26.404c-0.086,0.06-0.633,0.425-0.751,0.5   c-0.101,0.063-0.156,0.073-0.281,0.073h-0.762c-0.125,0-0.176-0.01-0.278-0.073c-0.117-0.073-0.666-0.438-0.753-0.5   c-0.058-0.038-0.085-0.104-0.068-0.162c0.018-0.059,0.075-0.095,0.152-0.095h2.656c0.076,0,0.131,0.035,0.15,0.093   C21.553,26.298,21.528,26.364,21.47,26.404 M16.208,18.567c-0.126-0.025-0.129-0.1-0.126-0.122   c0.008-0.079,0.108-0.143,0.223-0.143c0.139,0,0.3-0.087,0.3-0.33c0-0.222-0.207-0.532-0.544-0.532   c-0.114,0-0.153-0.044-0.166-0.08c-0.022-0.065,0.025-0.151,0.123-0.225c0.222-0.173,0.504-0.254,0.886-0.254   c1.044,0,1.591,0.818,1.591,1.101c0,0.318-0.595,0.648-1.592,0.648C16.637,18.628,16.436,18.61,16.208,18.567 M16.902,15.585   c0.126-0.017,0.248-0.025,0.361-0.025c0.297,0,1.315,0.057,1.965,0.785c0.62,0.699,0.584,1.376,0.444,1.821   c-0.05,0.162-0.106,0.24-0.172,0.24c-0.07,0-0.122-0.087-0.158-0.264c-0.07-0.346-0.263-0.87-0.792-1.402   c-0.502-0.503-1.177-0.756-1.656-0.879c-0.173-0.044-0.252-0.094-0.249-0.155C16.65,15.645,16.734,15.606,16.902,15.585   M20.058,14.109c-3.315,0-5.394,0.29-5.765,0.347c0.024,0.622,0.235,5.708,0.255,7.136c0.007,0.586,0.168,2.575,0.319,3.323   c0.33,1.649,1.799,4.44,5.192,4.44c3.394,0,4.861-2.79,5.194-4.44c0.15-0.746,0.308-2.735,0.316-3.323   c0.023-1.428,0.229-6.513,0.258-7.136C25.453,14.399,23.375,14.109,20.058,14.109" />
    </g>
    <g>
        <path class="st0"
            d="M49.218,7.992c1.333,0,2.351,0.433,3.202,1.362l-1.208,1.076c-0.587-0.615-1.167-0.868-1.99-0.868   c-0.839,0-1.707,0.481-1.707,1.286c0,0.736,0.576,1.307,1.812,1.797l0.923,0.394c1.811,0.736,2.691,1.762,2.691,3.135   c0,1.5-1.165,3.115-3.723,3.115c-1.475,0-2.763-0.571-3.938-1.744l1.351-1.158c0.519,0.598,1.451,1.237,2.567,1.291   c0.048,0.002,0.095,0.003,0.141,0.003c1.143,0,1.826-0.686,1.826-1.349c0-0.917-0.735-1.411-1.839-1.87l-0.938-0.378   c-1.778-0.734-2.641-1.78-2.641-3.199C45.746,9.075,47.511,7.992,49.218,7.992" />
        <path class="st0"
            d="M53.559,12.083h1.433v4.48c0,1.619,0.973,2.586,2.604,2.586h1.358v-1.604h-0.865   c-1.115,0-1.333-0.508-1.333-1.386v-4.076h2.199v-1.552h-2.199V8.46h-1.763v2.071h-1.433V12.083z" />
        <path class="st0"
            d="M64.499,17.615c-1.536,0-2.651-1.167-2.651-2.775c0-1.608,1.115-2.775,2.651-2.775   c1.512,0,2.651,1.193,2.651,2.775S66.011,17.615,64.499,17.615 M64.499,10.391c-2.547,0-4.467,1.913-4.467,4.45   c0,2.537,1.92,4.45,4.467,4.45c2.547,0,4.467-1.913,4.467-4.45C68.966,12.304,67.046,10.391,64.499,10.391" />
        <path class="st0"
            d="M74.812,10.391c-2.536,0-4.449,1.913-4.449,4.45c0,2.537,1.913,4.45,4.449,4.45   c1.266,0,2.385-0.474,3.239-1.372l-1.197-1.23c-0.538,0.584-1.242,0.892-2.042,0.892c-1.526,0-2.634-1.152-2.634-2.74   c0-1.587,1.108-2.74,2.634-2.74c0.8,0,1.504,0.308,2.042,0.892l1.197-1.229C77.197,10.865,76.079,10.391,74.812,10.391" />
        <polygon class="st0"
            points="81.491,14.777 85.345,19.15 87.49,19.15 83.47,14.612 87.052,10.531 84.993,10.531 81.491,14.491   81.491,7.049 79.728,7.049 79.728,19.15 81.491,19.15  " />
        <path class="st0"
            d="M94.813,19.15h1.763v-5.065c0-2.244-1.368-3.694-3.483-3.694c-0.974,0-1.848,0.342-2.398,0.939l-0.148,0.161   V7.049h-1.763v12.1h1.763l0.004-5.478c0.339-1.035,1.111-1.606,2.173-1.606c1.357,0,2.089,1.058,2.089,2.054V19.15z" />
        <g>
            <path class="st0"
                d="M102.703,17.615c-1.537,0-2.652-1.167-2.652-2.775c0-1.608,1.115-2.775,2.652-2.775   c1.511,0,2.651,1.193,2.651,2.775S104.214,17.615,102.703,17.615 M102.703,10.391c-2.547,0-4.468,1.913-4.468,4.45   c0,2.537,1.921,4.45,4.468,4.45c2.547,0,4.467-1.913,4.467-4.45C107.17,12.304,105.25,10.391,102.703,10.391" />
        </g>
        <rect x="108.89" y="7.049" class="st0" width="1.762" height="12.1" />
        <path class="st0"
            d="M123.883,19.15h1.763v-5.065c0-2.279-1.268-3.694-3.307-3.694c-0.551,0-1.93,0.128-2.833,1.32l-0.072,0.095   l-0.067-0.099c-0.579-0.861-1.503-1.316-2.671-1.316c-0.517,0-1.492,0.122-2.203,0.938l-0.149,0.171v-0.968h-1.764v8.618h1.764   l0.004-5.531c0.318-0.972,1.058-1.553,1.98-1.553c1.314,0,1.913,1.065,1.913,2.054v5.03h1.762v-5.065c0-0.139,0-0.259-0.016-0.394   l-0.003-0.019l0.006-0.018c0.336-1.009,1.065-1.588,1.997-1.588c1.309,0,1.896,1.032,1.896,2.054V19.15z" />
        <path class="st0"
            d="M130.342,10.348c1.097,0,1.945,0.365,2.668,1.147l0.084,0.09l-1.194,1.029l-0.085-0.089   c-0.461-0.48-0.887-0.676-1.471-0.676c-0.561,0-1.166,0.323-1.166,0.844c0,0.303,0.136,0.758,1.315,1.209l0.733,0.303   c1.5,0.589,2.229,1.421,2.229,2.543c0,1.263-1.069,2.541-3.113,2.541c-1.181,0-2.181-0.43-3.24-1.394L127,17.803l1.274-1.1   l0.084,0.097c0.446,0.517,1.24,0.887,1.976,0.922c0.035,0.002,0.069,0.003,0.103,0.003c0.789,0,1.26-0.435,1.26-0.856   c0-0.53-0.363-0.874-1.34-1.267l-0.736-0.286c-1.456-0.58-2.194-1.453-2.194-2.593C127.427,11.237,128.909,10.348,130.342,10.348" />
        <path class="st0"
            d="M49.511,24.849c1.097,0,1.945,0.365,2.669,1.147l0.084,0.09l-1.194,1.029l-0.085-0.089   c-0.461-0.48-0.887-0.676-1.471-0.676c-0.561,0-1.166,0.323-1.166,0.844c0,0.303,0.136,0.758,1.315,1.209l0.733,0.303   c1.5,0.588,2.229,1.42,2.229,2.543c0,1.263-1.07,2.541-3.114,2.541c-1.181,0-2.181-0.43-3.24-1.394l-0.102-0.092l1.274-1.1   l0.084,0.097c0.445,0.516,1.239,0.887,1.976,0.922c0.035,0.002,0.07,0.003,0.103,0.003c0.789,0,1.259-0.436,1.259-0.857   c0-0.53-0.363-0.873-1.34-1.266l-0.736-0.286c-1.456-0.58-2.194-1.452-2.194-2.593C46.596,25.737,48.078,24.849,49.511,24.849" />
        <path class="st0"
            d="M53.559,26.536h1.433v4.48c0,1.619,0.973,2.586,2.604,2.586h1.358v-1.604h-0.865   c-1.115,0-1.333-0.508-1.333-1.386v-4.076h2.199v-1.552h-2.199v-2.071h-1.763v2.071h-1.433V26.536z" />
        <path class="st0"
            d="M64.482,32.068c-1.527,0-2.634-1.167-2.634-2.775c0-1.608,1.108-2.775,2.634-2.775   c1.003,0,1.926,0.473,2.41,1.235l0.013,0.021v3.038l-0.013,0.021C66.409,31.595,65.485,32.068,64.482,32.068 M64.464,24.844   c-2.527,0-4.432,1.913-4.432,4.45c0,2.536,1.906,4.449,4.432,4.449c0.875,0,1.671-0.267,2.302-0.772l0.138-0.111v0.742h1.763   v-8.618h-1.763v0.743l-0.138-0.111C66.134,25.111,65.338,24.844,64.464,24.844" />
        <g>
            <path class="st0"
                d="M74.813,32.068c-1.526,0-2.634-1.167-2.634-2.775c0-1.608,1.108-2.775,2.634-2.775   c1.003,0,1.926,0.473,2.41,1.235l0.013,0.021v3.038l-0.013,0.021C76.739,31.595,75.816,32.068,74.813,32.068 M74.795,24.844   c-2.527,0-4.433,1.913-4.433,4.45c0,2.536,1.906,4.449,4.433,4.449c0.874,0,1.67-0.267,2.302-0.772l0.139-0.111v0.742h1.763v-12.1   h-1.763v4.224l-0.139-0.111C76.465,25.111,75.669,24.844,74.795,24.844" />
        </g>
    </g>
</svg>